<svg xmlns="http://www.w3.org/2000/svg" viewBox="0 0 256 256" width="256" height="256">
  <defs>
    <linearGradient id="bg" x1="0%" y1="0%" x2="100%" y2="100%">
      <stop offset="0%" style="stop-color:#0D1117"/>
      <stop offset="100%" style="stop-color:#161B22"/>
    </linearGradient>
    <linearGradient id="blue" x1="0%" y1="0%" x2="100%" y2="100%">
      <stop offset="0%" style="stop-color:#58A6FF"/>
      <stop offset="100%" style="stop-color:#2D7FF9"/>
    </linearGradient>
    <linearGradient id="wrench" x1="0%" y1="0%" x2="100%" y2="100%">
      <stop offset="0%" style="stop-color:#F0883E"/>
      <stop offset="100%" style="stop-color:#DA6D25"/>
    </linearGradient>
  </defs>
  
  <!-- Background rounded square -->
  <rect width="256" height="256" rx="40" ry="40" fill="url(#bg)"/>
  <rect width="256" height="256" rx="40" ry="40" fill="none" stroke="#30363D" stroke-width="2"/>
  
  <!-- Printer body -->
  <rect x="55" y="85" width="146" height="75" rx="10" fill="url(#blue)" opacity="0.95"/>
  
  <!-- Paper tray top -->
  <rect x="75" y="55" width="106" height="35" rx="5" fill="#8B949E" opacity="0.6"/>
  
  <!-- Paper coming out -->
  <rect x="80" y="155" width="96" height="50" rx="3" fill="#C9D1D9" opacity="0.9"/>
  <line x1="92" y1="168" x2="164" y2="168" stroke="#484F58" stroke-width="2" stroke-linecap="round"/>
  <line x1="92" y1="178" x2="148" y2="178" stroke="#484F58" stroke-width="2" stroke-linecap="round"/>
  <line x1="92" y1="188" x2="136" y2="188" stroke="#484F58" stroke-width="2" stroke-linecap="round"/>
  
  <!-- Printer detail - LED indicator -->
  <circle cx="78" cy="110" r="5" fill="#3FB950"/>
  
  <!-- Printer detail - buttons -->
  <rect x="150" y="105" width="30" height="10" rx="3" fill="#21262D"/>
  
  <!-- Wrench overlay (bottom right) -->
  <g transform="translate(160, 155) rotate(-45) scale(0.7)">
    <path d="M10,0 L20,0 L20,60 L15,70 L10,60 Z" fill="url(#wrench)" stroke="#0D1117" stroke-width="2"/>
    <circle cx="15" cy="12" r="4" fill="#0D1117"/>
    <rect x="5" y="52" width="20" height="18" rx="3" fill="url(#wrench)" stroke="#0D1117" stroke-width="2"/>
  </g>
  
  <!-- Checkmark badge -->
  <circle cx="200" cy="68" r="22" fill="#238636"/>
  <circle cx="200" cy="68" r="22" fill="none" stroke="#0D1117" stroke-width="3"/>
  <polyline points="189,68 196,76 212,60" fill="none" stroke="white" stroke-width="4" stroke-linecap="round" stroke-linejoin="round"/>
</svg>
